<svg width="224" height="32" viewBox="0 0 224 32" fill="none" xmlns="http://www.w3.org/2000/svg">
<path d="M0 23.6549C0.06184 22.3582 0.113373 21.0405 0.1546 19.702C0.21644 18.3634 0.24736 17.0039 0.24736 15.6235V10.2275C0.24736 8.84706 0.21644 7.49804 0.1546 6.18039C0.113373 4.84183 0.06184 3.48235 0 2.10196C0.267974 2.14379 0.525641 2.18562 0.773001 2.22745C1.02036 2.24837 1.26772 2.25882 1.51508 2.25882C1.76244 2.25882 2.0098 2.24837 2.25716 2.22745C2.50452 2.18562 2.76219 2.14379 3.03016 2.10196C2.96832 3.48235 2.90648 4.84183 2.84464 6.18039C2.80342 7.49804 2.7828 8.84706 2.7828 10.2275V11.9529C2.7828 12.1203 2.84464 12.2039 2.96832 12.2039C3.05078 12.2039 3.19507 12.1098 3.4012 11.9216C4.12267 11.2941 4.87506 10.583 5.65837 9.78823C6.46229 8.99346 7.26621 8.16732 8.07013 7.3098C8.87405 6.45229 9.66767 5.58431 10.451 4.70588C11.2343 3.80654 11.9867 2.93856 12.7081 2.10196C12.9349 2.14379 13.1513 2.18562 13.3575 2.22745C13.5636 2.24837 13.7697 2.25882 13.9759 2.25882C14.2232 2.25882 14.4706 2.24837 14.7179 2.22745C14.9653 2.18562 15.2127 2.14379 15.46 2.10196C14.7386 2.72941 13.9243 3.4719 13.0173 4.32941C12.1104 5.18693 11.1931 6.06536 10.2655 6.96471C9.35847 7.86405 8.4824 8.75294 7.63725 9.63137C6.81272 10.4889 6.12217 11.2418 5.56561 11.8902C7.23529 13.7935 8.91528 15.7386 10.6056 17.7255C12.3165 19.6915 14.048 21.668 15.8001 23.6549C15.4909 23.6131 15.1817 23.5922 14.8725 23.5922C14.5633 23.5922 14.2541 23.5922 13.9449 23.5922C13.6564 23.5922 13.3678 23.5922 13.0792 23.5922C12.8112 23.5922 12.5329 23.6131 12.2443 23.6549C11.5023 22.7974 10.6777 21.8144 9.77073 20.7059C8.88436 19.5974 8.00829 18.5307 7.14253 17.5059C6.29738 16.4601 5.52438 15.5294 4.82353 14.7137C4.14329 13.8771 3.63826 13.2915 3.30844 12.9569C3.14354 12.7895 3.01986 12.7059 2.9374 12.7059C2.83434 12.7059 2.7828 12.7686 2.7828 12.8941V15.6235C2.7828 17.0039 2.80342 18.3634 2.84464 19.702C2.90648 21.0405 2.96832 22.3582 3.03016 23.6549C2.55606 23.6131 2.05103 23.5922 1.51508 23.5922C0.979135 23.5922 0.474107 23.6131 0 23.6549Z" fill="black"/>
<path d="M26.4159 15.8431C26.0654 15.9686 25.6532 16.0732 25.1791 16.1569C24.7256 16.2405 24.2618 16.3346 23.7877 16.4392C23.3135 16.5229 22.8394 16.6379 22.3653 16.7843C21.9118 16.9307 21.4996 17.1294 21.1285 17.3804C20.7781 17.6314 20.4895 17.9451 20.2628 18.3216C20.0566 18.698 19.9536 19.1791 19.9536 19.7647C19.9536 20.7477 20.2319 21.4902 20.7884 21.9922C21.345 22.4941 21.9634 22.7451 22.6436 22.7451C23.4269 22.7451 24.1381 22.5255 24.7771 22.0863C25.4367 21.6471 25.9418 21.1346 26.2922 20.549L26.4159 15.8431ZM18.7786 10.2588C19.7062 9.54771 20.5617 9.06667 21.345 8.81569C22.1283 8.56471 22.9322 8.43922 23.7567 8.43922C24.4988 8.43922 25.1791 8.55425 25.7975 8.78431C26.4159 8.99346 26.9415 9.30719 27.3744 9.72549C27.8073 10.1229 28.1474 10.6144 28.3947 11.2C28.6421 11.7647 28.7658 12.3922 28.7658 13.0824C28.7658 14.2745 28.7452 15.4667 28.7039 16.6588C28.6627 17.8301 28.6421 19.0745 28.6421 20.3922C28.6421 20.6431 28.6421 20.915 28.6421 21.2078C28.6627 21.4797 28.7142 21.7307 28.7967 21.9608C28.8792 22.1699 28.9925 22.3477 29.1368 22.4941C29.3017 22.6405 29.5388 22.7137 29.848 22.7137C29.9511 22.7137 30.0541 22.7137 30.1572 22.7137C30.2809 22.6928 30.3942 22.651 30.4973 22.5882V23.2784C30.2706 23.383 29.982 23.4667 29.6315 23.5294C29.3017 23.5922 28.9307 23.6235 28.5184 23.6235C27.8588 23.6235 27.3538 23.4562 27.0033 23.1216C26.6529 22.766 26.4468 22.3163 26.3849 21.7725C25.6429 22.5255 24.9111 23.0797 24.1896 23.4353C23.4681 23.7908 22.5818 23.9686 21.5305 23.9686C21.0152 23.9686 20.5101 23.8954 20.0154 23.749C19.5207 23.6026 19.0775 23.3621 18.6859 23.0275C18.3148 22.6928 18.0056 22.2954 17.7582 21.8353C17.5315 21.3542 17.4181 20.8105 17.4181 20.2039C17.4181 18.949 17.7995 17.9765 18.5622 17.2863C19.3455 16.5961 20.4174 16.1359 21.7779 15.9059C22.891 15.7176 23.7567 15.5608 24.3751 15.4353C25.0142 15.2889 25.478 15.1425 25.7665 14.9961C26.0757 14.8497 26.2613 14.6824 26.3231 14.4941C26.3849 14.285 26.4159 14.0235 26.4159 13.7098C26.4159 13.1869 26.354 12.685 26.2303 12.2039C26.1067 11.7229 25.9108 11.3046 25.6429 10.949C25.3749 10.5935 25.0245 10.3111 24.5916 10.102C24.1587 9.8719 23.6331 9.75686 23.0147 9.75686C22.1901 9.75686 21.4171 9.9451 20.6957 10.3216C19.9948 10.698 19.4692 11.2209 19.1187 11.8902H18.7786V10.2588Z" fill="black"/>
<path d="M32.6308 23.3098C33.5172 22.2222 34.4241 21.0614 35.3517 19.8274C36.3 18.5935 37.2173 17.3804 38.1036 16.1882C38.99 14.9961 39.8145 13.8667 40.5772 12.8C41.3605 11.7333 42.0305 10.8235 42.587 10.0706C42.4427 10.0706 42.0305 10.081 41.3502 10.102C40.6906 10.1229 39.9279 10.1647 39.0622 10.2275C38.1964 10.2693 37.31 10.3216 36.403 10.3843C35.5167 10.4261 34.7849 10.4784 34.2077 10.5412C34.2696 10.2484 34.3005 9.95555 34.3005 9.66274C34.3005 9.39085 34.2696 9.08758 34.2077 8.75294C34.8673 8.81569 35.8362 8.85752 37.1142 8.87843C38.3922 8.89935 40.0001 8.9098 41.9377 8.9098C42.3706 8.9098 42.7623 8.9098 43.1127 8.9098C43.4837 8.9098 43.8238 8.89935 44.133 8.87843C44.4422 8.85752 44.7411 8.8366 45.0297 8.81569C45.3389 8.79477 45.6584 8.77386 45.9882 8.75294V9.22353C45.1637 10.3111 44.2567 11.5137 43.2673 12.8314C42.2985 14.1281 41.3502 15.4039 40.4226 16.6588C39.495 17.8928 38.6499 19.0327 37.8872 20.0784C37.1245 21.1033 36.5473 21.8876 36.1557 22.4314C37.0008 22.4314 37.7738 22.4314 38.4747 22.4314C39.1961 22.4105 39.9176 22.3895 40.6391 22.3686C41.3605 22.3268 42.1335 22.285 42.9581 22.2431C43.7826 22.1804 44.7411 22.0967 45.8336 21.9922C45.7512 22.2431 45.71 22.5359 45.71 22.8706C45.71 23.2052 45.7512 23.4667 45.8336 23.6549C44.535 23.6131 43.2467 23.5922 41.9686 23.5922C40.6906 23.5922 39.4023 23.5922 38.1036 23.5922C37.176 23.5922 36.2587 23.5922 35.3517 23.5922C34.4654 23.5922 33.5584 23.6131 32.6308 23.6549V23.3098Z" fill="black"/>
<path d="M57.3359 15.8431C56.9855 15.9686 56.5732 16.0732 56.0991 16.1569C55.6456 16.2405 55.1818 16.3346 54.7077 16.4392C54.2336 16.5229 53.7595 16.6379 53.2854 16.7843C52.8319 16.9307 52.4196 17.1294 52.0486 17.3804C51.6981 17.6314 51.4096 17.9451 51.1828 18.3216C50.9767 18.698 50.8736 19.1791 50.8736 19.7647C50.8736 20.7477 51.1519 21.4902 51.7085 21.9922C52.265 22.4941 52.8834 22.7451 53.5637 22.7451C54.347 22.7451 55.0581 22.5255 55.6971 22.0863C56.3568 21.6471 56.8618 21.1346 57.2122 20.549L57.3359 15.8431ZM49.6986 10.2588C50.6263 9.54771 51.4817 9.06667 52.265 8.81569C53.0483 8.56471 53.8522 8.43922 54.6768 8.43922C55.4189 8.43922 56.0991 8.55425 56.7175 8.78431C57.3359 8.99346 57.8615 9.30719 58.2944 9.72549C58.7273 10.1229 59.0674 10.6144 59.3148 11.2C59.5621 11.7647 59.6858 12.3922 59.6858 13.0824C59.6858 14.2745 59.6652 15.4667 59.624 16.6588C59.5828 17.8301 59.5621 19.0745 59.5621 20.3922C59.5621 20.6431 59.5621 20.915 59.5621 21.2078C59.5828 21.4797 59.6343 21.7307 59.7167 21.9608C59.7992 22.1699 59.9126 22.3477 60.0569 22.4941C60.2218 22.6405 60.4588 22.7137 60.768 22.7137C60.8711 22.7137 60.9742 22.7137 61.0772 22.7137C61.2009 22.6928 61.3143 22.651 61.4173 22.5882V23.2784C61.1906 23.383 60.902 23.4667 60.5516 23.5294C60.2218 23.5922 59.8507 23.6235 59.4385 23.6235C58.7788 23.6235 58.2738 23.4562 57.9234 23.1216C57.573 22.766 57.3668 22.3163 57.305 21.7725C56.5629 22.5255 55.8311 23.0797 55.1097 23.4353C54.3882 23.7908 53.5018 23.9686 52.4505 23.9686C51.9352 23.9686 51.4302 23.8954 50.9355 23.749C50.4407 23.6026 49.9975 23.3621 49.6059 23.0275C49.2349 22.6928 48.9257 22.2954 48.6783 21.8353C48.4515 21.3542 48.3382 20.8105 48.3382 20.2039C48.3382 18.949 48.7195 17.9765 49.4822 17.2863C50.2655 16.5961 51.3374 16.1359 52.6979 15.9059C53.811 15.7176 54.6768 15.5608 55.2952 15.4353C55.9342 15.2889 56.398 15.1425 56.6866 14.9961C56.9958 14.8497 57.1813 14.6824 57.2431 14.4941C57.305 14.285 57.3359 14.0235 57.3359 13.7098C57.3359 13.1869 57.2741 12.685 57.1504 12.2039C57.0267 11.7229 56.8309 11.3046 56.5629 10.949C56.2949 10.5935 55.9445 10.3111 55.5116 10.102C55.0787 9.8719 54.5531 9.75686 53.9347 9.75686C53.1102 9.75686 52.3372 9.9451 51.6157 10.3216C50.9148 10.698 50.3892 11.2209 50.0388 11.8902H49.6986V10.2588Z" fill="black"/>
<path d="M65.0968 9.03529C65.0968 8.32418 65.0865 7.55033 65.0659 6.71372C65.0659 5.87712 65.0556 5.05098 65.035 4.23529C65.0144 3.41961 64.9835 2.64575 64.9422 1.91373C64.9216 1.16078 64.8907 0.522875 64.8495 0C65.4266 0.104575 65.8904 0.156863 66.2409 0.156863C66.5913 0.156863 67.0551 0.104575 67.6323 0C67.591 0.522875 67.5498 1.16078 67.5086 1.91373C67.488 2.64575 67.4674 3.41961 67.4468 4.23529C67.4261 5.05098 67.4055 5.87712 67.3849 6.71372C67.3849 7.55033 67.3849 8.32418 67.3849 9.03529V14.7451C67.3849 15.1425 67.5086 15.3412 67.756 15.3412C67.9209 15.3412 68.0961 15.268 68.2816 15.1216C68.4877 14.9752 68.7145 14.8078 68.9618 14.6196C69.1474 14.4732 69.4566 14.1909 69.8894 13.7725C70.3429 13.3542 70.8376 12.8732 71.3736 12.3294C71.9302 11.7647 72.497 11.1686 73.0742 10.5412C73.6514 9.91372 74.177 9.31765 74.6511 8.75294C75.0634 8.85752 75.455 8.9098 75.8261 8.9098C76.0528 8.9098 76.2796 8.89935 76.5063 8.87843C76.7331 8.8366 77.0217 8.79477 77.3721 8.75294C76.0734 9.81961 74.8263 10.8758 73.6308 11.9216C72.4558 12.9464 71.3324 13.9922 70.2605 15.0588C71.4354 16.502 72.6413 17.9451 73.8781 19.3882C75.1355 20.8314 76.4136 22.2536 77.7122 23.6549C77.3618 23.6131 77.0423 23.5922 76.7537 23.5922C76.4857 23.5922 76.2177 23.5922 75.9498 23.5922C75.723 23.5922 75.4757 23.5922 75.2077 23.5922C74.9397 23.5922 74.6614 23.6131 74.3728 23.6549C73.9193 23.132 73.404 22.5255 72.8268 21.8353C72.2497 21.1242 71.6725 20.4235 71.0953 19.7333C70.5388 19.0431 70.0028 18.3948 69.4875 17.7882C68.9721 17.1817 68.529 16.6797 68.1579 16.2824C68.0961 16.1987 68.0239 16.1255 67.9415 16.0627C67.859 16 67.7766 15.9686 67.6941 15.9686C67.488 15.9686 67.3849 16.0941 67.3849 16.3451V18.2275C67.3849 19.1686 67.3952 20.0889 67.4158 20.9882C67.4571 21.8667 67.5292 22.7556 67.6323 23.6549C67.1582 23.6131 66.6944 23.5922 66.2409 23.5922C65.7874 23.5922 65.3236 23.6131 64.8495 23.6549C64.8907 23.1739 64.9216 22.5673 64.9422 21.8353C64.9835 21.1033 65.0144 20.3294 65.035 19.5137C65.0556 18.698 65.0659 17.8719 65.0659 17.0353C65.0865 16.1987 65.0968 15.4248 65.0968 14.7137V9.03529Z" fill="black"/>
<path d="M81.7627 16.251C81.7627 17.1294 81.8349 17.9765 81.9792 18.7922C82.1441 19.6078 82.4121 20.3399 82.7831 20.9882C83.1541 21.6157 83.6489 22.1176 84.2673 22.4941C84.8857 22.8706 85.6484 23.0588 86.5553 23.0588C87.4623 23.0588 88.225 22.8706 88.8434 22.4941C89.4618 22.1176 89.9565 21.6157 90.3276 20.9882C90.6986 20.3399 90.9563 19.6078 91.1006 18.7922C91.2655 17.9765 91.3479 17.1294 91.3479 16.251C91.3479 15.3725 91.2655 14.5255 91.1006 13.7098C90.9563 12.8941 90.6986 12.1725 90.3276 11.5451C89.9565 10.8967 89.4618 10.3843 88.8434 10.0078C88.225 9.63137 87.4623 9.44314 86.5553 9.44314C85.6484 9.44314 84.8857 9.63137 84.2673 10.0078C83.6489 10.3843 83.1541 10.8967 82.7831 11.5451C82.4121 12.1725 82.1441 12.8941 81.9792 13.7098C81.8349 14.5255 81.7627 15.3725 81.7627 16.251ZM79.0418 16.251C79.0418 14.8288 79.2582 13.6261 79.6911 12.6431C80.1446 11.6392 80.7321 10.834 81.4535 10.2275C82.175 9.6 82.9789 9.15033 83.8653 8.87843C84.7723 8.58562 85.669 8.43922 86.5553 8.43922C87.4623 8.43922 88.359 8.58562 89.2454 8.87843C90.1318 9.15033 90.9357 9.6 91.6572 10.2275C92.3786 10.834 92.9558 11.6392 93.3887 12.6431C93.8422 13.6261 94.0689 14.8288 94.0689 16.251C94.0689 17.6732 93.8422 18.8863 93.3887 19.8902C92.9558 20.8732 92.3786 21.6784 91.6572 22.3059C90.9357 22.9124 90.1318 23.3412 89.2454 23.5922C88.359 23.8431 87.4623 23.9686 86.5553 23.9686C85.669 23.9686 84.7723 23.8431 83.8653 23.5922C82.9789 23.3412 82.175 22.9124 81.4535 22.3059C80.7321 21.6784 80.1446 20.8732 79.6911 19.8902C79.2582 18.8863 79.0418 17.6732 79.0418 16.251Z" fill="black"/>
<path d="M101.426 23.6549C100.478 21.1869 99.5195 18.719 98.5506 16.251C97.6024 13.783 96.5614 11.2837 95.4277 8.75294C95.6957 8.79477 95.9533 8.8366 96.2007 8.87843C96.4481 8.89935 96.7057 8.9098 96.9737 8.9098C97.2004 8.9098 97.4272 8.89935 97.6539 8.87843C97.8807 8.8366 98.1074 8.79477 98.3342 8.75294C98.9732 10.8235 99.6637 12.8627 100.406 14.8706C101.169 16.8575 102.014 18.8967 102.941 20.9882C103.354 20.1307 103.756 19.2105 104.147 18.2275C104.559 17.2235 104.961 16.1882 105.353 15.1216C105.765 14.0549 106.157 12.9882 106.528 11.9216C106.92 10.834 107.301 9.77778 107.672 8.75294C108.043 8.85752 108.363 8.9098 108.631 8.9098C108.899 8.9098 109.218 8.85752 109.589 8.75294C108.476 11.2837 107.383 13.783 106.312 16.251C105.24 18.719 104.261 21.1869 103.374 23.6549C103.065 23.6131 102.745 23.5922 102.416 23.5922C102.086 23.5922 101.756 23.6131 101.426 23.6549Z" fill="black"/>
<path d="M119.78 15.8431C119.429 15.9686 119.017 16.0732 118.543 16.1569C118.09 16.2405 117.626 16.3346 117.152 16.4392C116.678 16.5229 116.203 16.6379 115.729 16.7843C115.276 16.9307 114.864 17.1294 114.493 17.3804C114.142 17.6314 113.854 17.9451 113.627 18.3216C113.421 18.698 113.318 19.1791 113.318 19.7647C113.318 20.7477 113.596 21.4902 114.152 21.9922C114.709 22.4941 115.327 22.7451 116.008 22.7451C116.791 22.7451 117.502 22.5255 118.141 22.0863C118.801 21.6471 119.306 21.1346 119.656 20.549L119.78 15.8431ZM112.143 10.2588C113.07 9.54771 113.926 9.06667 114.709 8.81569C115.492 8.56471 116.296 8.43922 117.121 8.43922C117.863 8.43922 118.543 8.55425 119.161 8.78431C119.78 8.99346 120.306 9.30719 120.738 9.72549C121.171 10.1229 121.511 10.6144 121.759 11.2C122.006 11.7647 122.13 12.3922 122.13 13.0824C122.13 14.2745 122.109 15.4667 122.068 16.6588C122.027 17.8301 122.006 19.0745 122.006 20.3922C122.006 20.6431 122.006 20.915 122.006 21.2078C122.027 21.4797 122.078 21.7307 122.161 21.9608C122.243 22.1699 122.357 22.3477 122.501 22.4941C122.666 22.6405 122.903 22.7137 123.212 22.7137C123.315 22.7137 123.418 22.7137 123.521 22.7137C123.645 22.6928 123.758 22.651 123.861 22.5882V23.2784C123.635 23.383 123.346 23.4667 122.996 23.5294C122.666 23.5922 122.295 23.6235 121.882 23.6235C121.223 23.6235 120.718 23.4562 120.367 23.1216C120.017 22.766 119.811 22.3163 119.749 21.7725C119.007 22.5255 118.275 23.0797 117.554 23.4353C116.832 23.7908 115.946 23.9686 114.895 23.9686C114.379 23.9686 113.874 23.8954 113.379 23.749C112.885 23.6026 112.442 23.3621 112.05 23.0275C111.679 22.6928 111.37 22.2954 111.122 21.8353C110.896 21.3542 110.782 20.8105 110.782 20.2039C110.782 18.949 111.164 17.9765 111.926 17.2863C112.71 16.5961 113.781 16.1359 115.142 15.9059C116.255 15.7176 117.121 15.5608 117.739 15.4353C118.378 15.2889 118.842 15.1425 119.131 14.9961C119.44 14.8497 119.625 14.6824 119.687 14.4941C119.749 14.285 119.78 14.0235 119.78 13.7098C119.78 13.1869 119.718 12.685 119.594 12.2039C119.471 11.7229 119.275 11.3046 119.007 10.949C118.739 10.5935 118.388 10.3111 117.956 10.102C117.523 9.8719 116.997 9.75686 116.379 9.75686C115.554 9.75686 114.781 9.9451 114.06 10.3216C113.359 10.698 112.833 11.2209 112.483 11.8902H112.143V10.2588Z" fill="black"/>
<path d="M136.579 10.2275C136.579 8.84706 136.548 7.49804 136.487 6.18039C136.445 4.84183 136.394 3.48235 136.332 2.10196C137.115 2.14379 137.888 2.18562 138.651 2.22745C139.434 2.24837 140.218 2.25882 141.001 2.25882C141.784 2.25882 142.557 2.23791 143.32 2.19608C144.103 2.13333 144.887 2.10196 145.67 2.10196C147.484 2.10196 149.03 2.34248 150.308 2.82353C151.607 3.30457 152.668 3.99477 153.493 4.89412C154.317 5.77255 154.915 6.86013 155.286 8.15686C155.678 9.43268 155.873 10.8758 155.873 12.4863C155.873 14.5778 155.513 16.3451 154.791 17.7882C154.09 19.2105 153.183 20.3608 152.07 21.2392C150.978 22.1176 149.762 22.7451 148.422 23.1216C147.102 23.4771 145.835 23.6549 144.619 23.6549C143.918 23.6549 143.227 23.6444 142.547 23.6235C141.867 23.6026 141.176 23.5922 140.475 23.5922C139.774 23.5922 139.084 23.5922 138.404 23.5922C137.723 23.5922 137.033 23.6131 136.332 23.6549C136.394 22.3582 136.445 21.0405 136.487 19.702C136.548 18.3634 136.579 17.0039 136.579 15.6235V10.2275ZM139.115 15.6235C139.115 17.8824 139.177 20.0993 139.3 22.2745C139.733 22.3791 140.321 22.4627 141.063 22.5255C141.805 22.5673 142.568 22.5882 143.351 22.5882C144.485 22.5882 145.618 22.4523 146.752 22.1804C147.886 21.9085 148.896 21.3961 149.782 20.6431C150.689 19.8902 151.421 18.8654 151.978 17.5686C152.555 16.251 152.843 14.5569 152.843 12.4863C152.843 10.6667 152.617 9.17124 152.163 8C151.73 6.82876 151.122 5.9085 150.339 5.23922C149.576 4.54902 148.659 4.07843 147.587 3.82745C146.515 3.55556 145.34 3.41961 144.062 3.41961C143.134 3.41961 142.269 3.45098 141.465 3.51372C140.661 3.57647 139.939 3.64967 139.3 3.73333C139.238 4.73725 139.187 5.79346 139.146 6.90196C139.125 7.98954 139.115 9.09804 139.115 10.2275V15.6235Z" fill="black"/>
<path d="M165.84 9.44314C165.077 9.44314 164.428 9.62092 163.892 9.97647C163.376 10.332 162.943 10.7817 162.593 11.3255C162.263 11.8484 162.006 12.434 161.82 13.0824C161.655 13.7098 161.552 14.3059 161.511 14.8706C162.15 14.8915 162.809 14.9124 163.49 14.9333C164.191 14.9542 164.871 14.9647 165.53 14.9647C166.211 14.9647 166.901 14.9542 167.602 14.9333C168.303 14.9124 168.983 14.8915 169.643 14.8706C169.643 14.3059 169.591 13.7098 169.488 13.0824C169.406 12.4549 169.22 11.8693 168.932 11.3255C168.664 10.7817 168.282 10.332 167.788 9.97647C167.293 9.62092 166.644 9.44314 165.84 9.44314ZM158.697 16.6902C158.697 14.1176 159.295 12.0993 160.49 10.6353C161.707 9.17124 163.469 8.43922 165.778 8.43922C166.87 8.43922 167.808 8.61699 168.592 8.97255C169.395 9.30719 170.065 9.76732 170.601 10.3529C171.137 10.9176 171.529 11.5869 171.776 12.3608C172.044 13.1346 172.178 13.9608 172.178 14.8392C172.178 15.0484 172.168 15.2575 172.147 15.4667C172.147 15.6549 172.137 15.8536 172.116 16.0627C171.003 16.0418 169.9 16.0209 168.808 16C167.715 15.9791 166.613 15.9686 165.5 15.9686C164.819 15.9686 164.139 15.9791 163.459 16C162.799 16.0209 162.129 16.0418 161.449 16.0627C161.428 16.1673 161.418 16.3242 161.418 16.5333V16.9412C161.418 17.7569 161.531 18.5203 161.758 19.2314C162.006 19.9425 162.356 20.5595 162.809 21.0824C163.263 21.5843 163.82 21.9922 164.479 22.3059C165.139 22.5987 165.901 22.7451 166.767 22.7451C167.18 22.7451 167.602 22.6928 168.035 22.5882C168.468 22.4627 168.89 22.3059 169.303 22.1176C169.715 21.9085 170.096 21.668 170.447 21.3961C170.818 21.1242 171.137 20.8314 171.405 20.5176L171.56 20.6118L171.374 22.149C170.756 22.651 169.983 23.0797 169.055 23.4353C168.148 23.7908 167.2 23.9686 166.211 23.9686C165.098 23.9686 164.077 23.8013 163.15 23.4667C162.243 23.1111 161.449 22.6091 160.769 21.9608C160.109 21.2915 159.594 20.5072 159.223 19.6078C158.872 18.7085 158.697 17.7359 158.697 16.6902Z" fill="black"/>
<path d="M175.27 20.7373C175.373 20.9464 175.528 21.1765 175.734 21.4275C175.961 21.6784 176.218 21.919 176.507 22.149C176.816 22.3582 177.156 22.5359 177.527 22.6824C177.919 22.8288 178.331 22.902 178.764 22.902C179.156 22.902 179.527 22.8392 179.877 22.7137C180.248 22.5882 180.568 22.4105 180.836 22.1804C181.124 21.9503 181.351 21.6575 181.516 21.302C181.681 20.9464 181.763 20.5386 181.763 20.0784C181.763 19.4301 181.578 18.9386 181.207 18.6039C180.856 18.2484 180.413 17.966 179.877 17.7569C179.341 17.5268 178.754 17.3281 178.115 17.1608C177.476 16.9935 176.888 16.7634 176.352 16.4706C175.816 16.1569 175.363 15.749 174.992 15.2471C174.642 14.7451 174.466 14.0549 174.466 13.1765C174.466 12.4863 174.58 11.8588 174.806 11.2941C175.033 10.7085 175.363 10.2065 175.796 9.78823C176.229 9.36994 176.765 9.04575 177.404 8.81569C178.043 8.56471 178.775 8.43922 179.599 8.43922C180.362 8.43922 181.001 8.54379 181.516 8.75294C182.052 8.96209 182.557 9.15033 183.031 9.31765C182.866 9.63137 182.712 10.0183 182.567 10.4784C182.423 10.9386 182.33 11.2941 182.289 11.5451H181.918C181.753 11.0431 181.434 10.5935 180.96 10.1961C180.485 9.79869 179.898 9.6 179.197 9.6C178.888 9.6 178.579 9.65229 178.269 9.75686C177.96 9.86144 177.682 10.0183 177.435 10.2275C177.187 10.4366 176.981 10.7085 176.816 11.0431C176.651 11.3778 176.569 11.7752 176.569 12.2353C176.569 12.9046 176.744 13.4275 177.095 13.8039C177.466 14.1595 177.919 14.4418 178.455 14.651C178.991 14.8601 179.578 15.0484 180.217 15.2157C180.856 15.3621 181.444 15.5817 181.98 15.8745C182.516 16.1464 182.959 16.5333 183.309 17.0353C183.68 17.5373 183.866 18.2275 183.866 19.1059C183.866 19.7124 183.732 20.3085 183.464 20.8941C183.217 21.4797 182.846 22.0131 182.351 22.4941C181.877 22.9542 181.3 23.3203 180.619 23.5922C179.939 23.8431 179.166 23.9686 178.3 23.9686C177.352 23.9686 176.559 23.8745 175.92 23.6863C175.281 23.498 174.745 23.2784 174.312 23.0275C174.435 22.7556 174.559 22.3895 174.683 21.9294C174.827 21.4484 174.899 21.051 174.899 20.7373H175.27Z" fill="black"/>
<path d="M187.814 3.29412C187.814 2.8549 187.968 2.47843 188.277 2.16471C188.587 1.85098 188.958 1.69412 189.391 1.69412C189.823 1.69412 190.194 1.85098 190.504 2.16471C190.813 2.47843 190.967 2.8549 190.967 3.29412C190.967 3.73333 190.813 4.1098 190.504 4.42353C190.194 4.73726 189.823 4.89412 189.391 4.89412C188.958 4.89412 188.587 4.73726 188.277 4.42353C187.968 4.1098 187.814 3.73333 187.814 3.29412ZM188.247 14.6196C188.247 13.6784 188.226 12.6954 188.185 11.6706C188.164 10.6248 188.102 9.65229 187.999 8.75294C188.576 8.85752 189.04 8.9098 189.391 8.9098C189.741 8.9098 190.205 8.85752 190.782 8.75294C190.679 9.65229 190.607 10.6248 190.566 11.6706C190.545 12.6954 190.535 13.6784 190.535 14.6196V17.8824C190.535 18.8235 190.545 19.817 190.566 20.8627C190.607 21.8876 190.679 22.8183 190.782 23.6549C190.308 23.6131 189.844 23.5922 189.391 23.5922C188.937 23.5922 188.473 23.6131 187.999 23.6549C188.102 22.8183 188.164 21.8876 188.185 20.8627C188.226 19.817 188.247 18.8235 188.247 17.8824V14.6196Z" fill="black"/>
<path d="M206.221 26.9804C206.221 25.7255 205.86 24.8471 205.139 24.3451C204.417 23.8431 203.222 23.5922 201.552 23.5922C200.006 23.5922 198.81 23.8431 197.965 24.3451C197.12 24.868 196.698 25.7987 196.698 27.1373C196.698 27.8484 196.811 28.4549 197.038 28.9569C197.285 29.4588 197.605 29.8667 197.996 30.1804C198.408 30.4941 198.893 30.7242 199.449 30.8706C200.006 31.017 200.604 31.0902 201.243 31.0902C201.861 31.0902 202.469 31.0065 203.067 30.8392C203.665 30.6719 204.191 30.4209 204.644 30.0863C205.118 29.7516 205.5 29.3229 205.788 28.8C206.077 28.298 206.221 27.6915 206.221 26.9804ZM204.551 13.3961C204.551 12.0784 204.242 11.0745 203.624 10.3843C203.005 9.69412 202.191 9.34902 201.181 9.34902C200.068 9.34902 199.202 9.73595 198.584 10.5098C197.965 11.2627 197.656 12.2771 197.656 13.5529C197.656 14.8706 197.934 15.9163 198.491 16.6902C199.068 17.4431 199.955 17.8196 201.15 17.8196C201.748 17.8196 202.253 17.7046 202.665 17.4745C203.098 17.2235 203.448 16.8993 203.716 16.502C204.005 16.0837 204.211 15.6131 204.335 15.0902C204.479 14.5464 204.551 13.9817 204.551 13.3961ZM195.244 13.5529C195.244 12.6745 195.399 11.9216 195.708 11.2941C196.017 10.6458 196.44 10.1124 196.976 9.69412C197.532 9.27582 198.161 8.96209 198.862 8.75294C199.583 8.54379 200.346 8.43922 201.15 8.43922C201.542 8.43922 201.913 8.44967 202.263 8.47059C202.634 8.4915 203.098 8.52287 203.655 8.56471C204.129 8.60654 204.551 8.63791 204.922 8.65882C205.293 8.67974 205.592 8.6902 205.819 8.6902C206.973 8.6902 207.808 8.63791 208.324 8.53333C208.303 8.63791 208.282 8.75294 208.262 8.87843C208.262 8.98301 208.262 9.08758 208.262 9.19216C208.262 9.29673 208.262 9.41176 208.262 9.53726C208.282 9.64183 208.303 9.7464 208.324 9.85098C207.726 9.80915 207.138 9.76732 206.561 9.72549C206.005 9.66274 205.448 9.62091 204.891 9.6L204.83 9.66274C205.469 10.0183 205.984 10.5725 206.376 11.3255C206.767 12.0575 206.963 12.8209 206.963 13.6157C206.963 15.1843 206.437 16.4183 205.386 17.3176C204.355 18.1961 202.964 18.6353 201.212 18.6353C200.923 18.6353 200.635 18.6248 200.346 18.6039C200.078 18.583 199.8 18.5725 199.511 18.5725C199.14 18.5725 198.79 18.7085 198.46 18.9804C198.151 19.2523 197.996 19.5974 197.996 20.0157C197.996 20.5595 198.12 20.9569 198.367 21.2078C198.635 21.4588 199.12 21.5948 199.821 21.6157C200.398 21.6366 200.965 21.6575 201.521 21.6784C202.078 21.6784 202.645 21.6889 203.222 21.7098C204.17 21.7307 204.974 21.8458 205.633 22.0549C206.314 22.2641 206.86 22.5464 207.272 22.902C207.705 23.2575 208.014 23.6654 208.2 24.1255C208.406 24.5856 208.509 25.0876 208.509 25.6314C208.509 26.3634 208.365 27.1059 208.076 27.8588C207.808 28.6118 207.375 29.2915 206.778 29.898C206.2 30.5046 205.448 31.0065 204.52 31.4039C203.593 31.8013 202.48 32 201.181 32C199.182 32 197.605 31.5922 196.45 30.7765C195.296 29.9817 194.719 28.8837 194.719 27.4824C194.719 26.9386 194.811 26.4366 194.997 25.9765C195.203 25.5163 195.461 25.1085 195.77 24.7529C196.079 24.3974 196.43 24.115 196.821 23.9059C197.213 23.6967 197.615 23.5399 198.027 23.4353V23.3725C197.388 23.1843 196.904 22.8706 196.574 22.4314C196.244 21.9922 196.079 21.4693 196.079 20.8627C196.079 20.5072 196.141 20.183 196.265 19.8902C196.409 19.5974 196.584 19.3359 196.79 19.1059C196.996 18.8758 197.234 18.6876 197.502 18.5412C197.77 18.3948 198.027 18.3007 198.275 18.2588V18.1961C197.326 17.7778 196.584 17.1922 196.048 16.4392C195.512 15.6654 195.244 14.7033 195.244 13.5529Z" fill="black"/>
<path d="M221.588 14.8392C221.588 13.2706 221.289 12.0889 220.692 11.2941C220.094 10.4784 219.269 10.0706 218.218 10.0706C216.775 10.0706 215.713 10.5203 215.033 11.4196C214.374 12.319 214.044 13.5843 214.044 15.2157V17.8824C214.044 18.8235 214.054 19.817 214.075 20.8627C214.116 21.8876 214.188 22.8183 214.291 23.6549C213.817 23.6131 213.353 23.5922 212.9 23.5922C212.446 23.5922 211.982 23.6131 211.508 23.6549C211.611 22.8183 211.673 21.8876 211.694 20.8627C211.735 19.817 211.756 18.8235 211.756 17.8824V14.6196C211.756 13.6784 211.735 12.6954 211.694 11.6706C211.673 10.6248 211.611 9.65229 211.508 8.75294C212.085 8.85752 212.549 8.9098 212.9 8.9098C213.065 8.9098 213.24 8.89935 213.425 8.87843C213.631 8.8366 213.869 8.79477 214.136 8.75294C214.075 9.58954 214.044 10.4261 214.044 11.2627H214.106C214.683 10.3634 215.373 9.6732 216.177 9.19216C216.981 8.6902 217.94 8.43922 219.053 8.43922C219.63 8.43922 220.207 8.52288 220.784 8.6902C221.382 8.85752 221.918 9.15033 222.392 9.56863C222.866 9.96601 223.248 10.5203 223.536 11.2314C223.845 11.9216 224 12.8105 224 13.898C224 14.7974 223.979 15.7281 223.938 16.6902C223.897 17.6314 223.876 18.6353 223.876 19.702V21.7412C223.876 22.0758 223.876 22.4105 223.876 22.7451C223.897 23.0588 223.918 23.3621 223.938 23.6549C223.526 23.6131 223.093 23.5922 222.64 23.5922C222.207 23.5922 221.784 23.6131 221.372 23.6549C221.413 22.5673 221.454 21.4484 221.495 20.298C221.557 19.1477 221.588 17.966 221.588 16.7529V14.8392Z" fill="black"/>
</svg>
