<svg width="580" height="83" viewBox="0 0 580 83" fill="none" xmlns="http://www.w3.org/2000/svg">
<path d="M0.2 61.16C0.36 57.8533 0.493334 54.4933 0.600001 51.08C0.76 47.6667 0.84 44.2 0.84 40.68V26.92C0.84 23.4 0.76 19.96 0.600001 16.6C0.493334 13.1867 0.36 9.72 0.2 6.2C0.893334 6.30666 1.56 6.41333 2.2 6.52C2.84 6.57333 3.48 6.6 4.12 6.6C4.76 6.6 5.4 6.57333 6.04 6.52C6.68 6.41333 7.34667 6.30666 8.04 6.2C7.88 9.72 7.72 13.1867 7.56 16.6C7.45333 19.96 7.4 23.4 7.4 26.92V31.32C7.4 31.7467 7.56 31.96 7.88 31.96C8.09333 31.96 8.46667 31.72 9 31.24C10.8667 29.64 12.8133 27.8267 14.84 25.8C16.92 23.7733 19 21.6667 21.08 19.48C23.16 17.2933 25.2133 15.08 27.24 12.84C29.2667 10.5467 31.2133 8.33333 33.08 6.2C33.6667 6.30666 34.2267 6.41333 34.76 6.52C35.2933 6.57333 35.8267 6.6 36.36 6.6C37 6.6 37.64 6.57333 38.28 6.52C38.92 6.41333 39.56 6.30666 40.2 6.2C38.3333 7.8 36.2267 9.69333 33.88 11.88C31.5333 14.0667 29.16 16.3067 26.76 18.6C24.4133 20.8933 22.1467 23.16 19.96 25.4C17.8267 27.5867 16.04 29.5067 14.6 31.16C18.92 36.0133 23.2667 40.9733 27.64 46.04C32.0667 51.0533 36.5467 56.0933 41.08 61.16C40.28 61.0533 39.48 61 38.68 61C37.88 61 37.08 61 36.28 61C35.5333 61 34.7867 61 34.04 61C33.3467 61 32.6267 61.0533 31.88 61.16C29.96 58.9733 27.8267 56.4667 25.48 53.64C23.1867 50.8133 20.92 48.0933 18.68 45.48C16.4933 42.8133 14.4933 40.44 12.68 38.36C10.92 36.2267 9.61333 34.7333 8.76 33.88C8.33333 33.4533 8.01333 33.24 7.8 33.24C7.53333 33.24 7.4 33.4 7.4 33.72V40.68C7.4 44.2 7.45333 47.6667 7.56 51.08C7.72 54.4933 7.88 57.8533 8.04 61.16C6.81333 61.0533 5.50667 61 4.12 61C2.73333 61 1.42667 61.0533 0.2 61.16ZM68.5463 41.24C67.6396 41.56 66.5729 41.8267 65.3463 42.04C64.1729 42.2533 62.9729 42.4933 61.7463 42.76C60.5196 42.9733 59.2929 43.2667 58.0663 43.64C56.8929 44.0133 55.8263 44.52 54.8663 45.16C53.9596 45.8 53.2129 46.6 52.6263 47.56C52.0929 48.52 51.8263 49.7467 51.8263 51.24C51.8263 53.7467 52.5463 55.64 53.9863 56.92C55.4263 58.2 57.0263 58.84 58.7863 58.84C60.8129 58.84 62.6529 58.28 64.3063 57.16C66.0129 56.04 67.3196 54.7333 68.2263 53.24L68.5463 41.24ZM48.7863 27C51.1863 25.1867 53.3996 23.96 55.4263 23.32C57.4529 22.68 59.5329 22.36 61.6663 22.36C63.5863 22.36 65.3463 22.6533 66.9463 23.24C68.5463 23.7733 69.9063 24.5733 71.0263 25.64C72.1463 26.6533 73.0263 27.9067 73.6663 29.4C74.3063 30.84 74.6263 32.44 74.6263 34.2C74.6263 37.24 74.5729 40.28 74.4663 43.32C74.3596 46.3067 74.3063 49.48 74.3063 52.84C74.3063 53.48 74.3063 54.1733 74.3063 54.92C74.3596 55.6133 74.4929 56.2533 74.7063 56.84C74.9196 57.3733 75.2129 57.8267 75.5863 58.2C76.0129 58.5733 76.6263 58.76 77.4263 58.76C77.6929 58.76 77.9596 58.76 78.2263 58.76C78.5463 58.7067 78.8396 58.6 79.1063 58.44V60.2C78.5196 60.4667 77.7729 60.68 76.8663 60.84C76.0129 61 75.0529 61.08 73.9863 61.08C72.2796 61.08 70.9729 60.6533 70.0663 59.8C69.1596 58.8933 68.6263 57.7467 68.4663 56.36C66.5463 58.28 64.6529 59.6933 62.7863 60.6C60.9196 61.5067 58.6263 61.96 55.9063 61.96C54.5729 61.96 53.2663 61.7733 51.9863 61.4C50.7063 61.0267 49.5596 60.4133 48.5463 59.56C47.5863 58.7067 46.7863 57.6933 46.1463 56.52C45.5596 55.2933 45.2663 53.9067 45.2663 52.36C45.2663 49.16 46.2529 46.68 48.2263 44.92C50.2529 43.16 53.0263 41.9867 56.5463 41.4C59.4263 40.92 61.6663 40.52 63.2663 40.2C64.9196 39.8267 66.1196 39.4533 66.8663 39.08C67.6663 38.7067 68.1463 38.28 68.3063 37.8C68.4663 37.2667 68.5463 36.6 68.5463 35.8C68.5463 34.4667 68.3863 33.1867 68.0663 31.96C67.7463 30.7333 67.2396 29.6667 66.5463 28.76C65.8529 27.8533 64.9463 27.1333 63.8263 26.6C62.7063 26.0133 61.3463 25.72 59.7463 25.72C57.6129 25.72 55.6129 26.2 53.7463 27.16C51.9329 28.12 50.5729 29.4533 49.6663 31.16H48.7863V27ZM84.6263 60.28C86.9196 57.5067 89.2663 54.5467 91.6663 51.4C94.1196 48.2533 96.4929 45.16 98.7863 42.12C101.08 39.08 103.213 36.2 105.186 33.48C107.213 30.76 108.946 28.44 110.386 26.52C110.013 26.52 108.946 26.5467 107.186 26.6C105.48 26.6533 103.506 26.76 101.266 26.92C99.0263 27.0267 96.7329 27.16 94.3863 27.32C92.0929 27.4267 90.1996 27.56 88.7063 27.72C88.8663 26.9733 88.9463 26.2267 88.9463 25.48C88.9463 24.7867 88.8663 24.0133 88.7063 23.16C90.4129 23.32 92.9196 23.4267 96.2263 23.48C99.5329 23.5333 103.693 23.56 108.706 23.56C109.826 23.56 110.84 23.56 111.746 23.56C112.706 23.56 113.586 23.5333 114.386 23.48C115.186 23.4267 115.96 23.3733 116.706 23.32C117.506 23.2667 118.333 23.2133 119.186 23.16V24.36C117.053 27.1333 114.706 30.2 112.146 33.56C109.64 36.8667 107.186 40.12 104.786 43.32C102.386 46.4667 100.2 49.3733 98.2263 52.04C96.2529 54.6533 94.7596 56.6533 93.7463 58.04C95.9329 58.04 97.9329 58.04 99.7463 58.04C101.613 57.9867 103.48 57.9333 105.346 57.88C107.213 57.7733 109.213 57.6667 111.346 57.56C113.48 57.4 115.96 57.1867 118.786 56.92C118.573 57.56 118.466 58.3067 118.466 59.16C118.466 60.0133 118.573 60.68 118.786 61.16C115.426 61.0533 112.093 61 108.786 61C105.48 61 102.146 61 98.7863 61C96.3863 61 94.0129 61 91.6663 61C89.3729 61 87.0263 61.0533 84.6263 61.16V60.28ZM148.546 41.24C147.64 41.56 146.573 41.8267 145.346 42.04C144.173 42.2533 142.973 42.4933 141.746 42.76C140.52 42.9733 139.293 43.2667 138.066 43.64C136.893 44.0133 135.826 44.52 134.866 45.16C133.96 45.8 133.213 46.6 132.626 47.56C132.093 48.52 131.826 49.7467 131.826 51.24C131.826 53.7467 132.546 55.64 133.986 56.92C135.426 58.2 137.026 58.84 138.786 58.84C140.813 58.84 142.653 58.28 144.306 57.16C146.013 56.04 147.32 54.7333 148.226 53.24L148.546 41.24ZM128.786 27C131.186 25.1867 133.4 23.96 135.426 23.32C137.453 22.68 139.533 22.36 141.666 22.36C143.586 22.36 145.346 22.6533 146.946 23.24C148.546 23.7733 149.906 24.5733 151.026 25.64C152.146 26.6533 153.026 27.9067 153.666 29.4C154.306 30.84 154.626 32.44 154.626 34.2C154.626 37.24 154.573 40.28 154.466 43.32C154.36 46.3067 154.306 49.48 154.306 52.84C154.306 53.48 154.306 54.1733 154.306 54.92C154.36 55.6133 154.493 56.2533 154.706 56.84C154.92 57.3733 155.213 57.8267 155.586 58.2C156.013 58.5733 156.626 58.76 157.426 58.76C157.693 58.76 157.96 58.76 158.226 58.76C158.546 58.7067 158.84 58.6 159.106 58.44V60.2C158.52 60.4667 157.773 60.68 156.866 60.84C156.013 61 155.053 61.08 153.986 61.08C152.28 61.08 150.973 60.6533 150.066 59.8C149.16 58.8933 148.626 57.7467 148.466 56.36C146.546 58.28 144.653 59.6933 142.786 60.6C140.92 61.5067 138.626 61.96 135.906 61.96C134.573 61.96 133.266 61.7733 131.986 61.4C130.706 61.0267 129.56 60.4133 128.546 59.56C127.586 58.7067 126.786 57.6933 126.146 56.52C125.56 55.2933 125.266 53.9067 125.266 52.36C125.266 49.16 126.253 46.68 128.226 44.92C130.253 43.16 133.026 41.9867 136.546 41.4C139.426 40.92 141.666 40.52 143.266 40.2C144.92 39.8267 146.12 39.4533 146.866 39.08C147.666 38.7067 148.146 38.28 148.306 37.8C148.466 37.2667 148.546 36.6 148.546 35.8C148.546 34.4667 148.386 33.1867 148.066 31.96C147.746 30.7333 147.24 29.6667 146.546 28.76C145.853 27.8533 144.946 27.1333 143.826 26.6C142.706 26.0133 141.346 25.72 139.746 25.72C137.613 25.72 135.613 26.2 133.746 27.16C131.933 28.12 130.573 29.4533 129.666 31.16H128.786V27ZM168.626 23.88C168.626 22.0667 168.6 20.0933 168.546 17.96C168.546 15.8267 168.52 13.72 168.466 11.64C168.413 9.56 168.333 7.58666 168.226 5.72C168.173 3.8 168.093 2.17333 167.986 0.839997C169.48 1.10666 170.68 1.24 171.586 1.24C172.493 1.24 173.693 1.10666 175.186 0.839997C175.08 2.17333 174.973 3.8 174.866 5.72C174.813 7.58666 174.76 9.56 174.706 11.64C174.653 13.72 174.6 15.8267 174.546 17.96C174.546 20.0933 174.546 22.0667 174.546 23.88V38.44C174.546 39.4533 174.866 39.96 175.506 39.96C175.933 39.96 176.386 39.7733 176.866 39.4C177.4 39.0267 177.986 38.6 178.626 38.12C179.106 37.7467 179.906 37.0267 181.026 35.96C182.2 34.8933 183.48 33.6667 184.866 32.28C186.306 30.84 187.773 29.32 189.266 27.72C190.76 26.12 192.12 24.6 193.346 23.16C194.413 23.4267 195.426 23.56 196.386 23.56C196.973 23.56 197.56 23.5333 198.146 23.48C198.733 23.3733 199.48 23.2667 200.386 23.16C197.026 25.88 193.8 28.5733 190.706 31.24C187.666 33.8533 184.76 36.52 181.986 39.24C185.026 42.92 188.146 46.6 191.346 50.28C194.6 53.96 197.906 57.5867 201.266 61.16C200.36 61.0533 199.533 61 198.786 61C198.093 61 197.4 61 196.706 61C196.12 61 195.48 61 194.786 61C194.093 61 193.373 61.0533 192.626 61.16C191.453 59.8267 190.12 58.28 188.626 56.52C187.133 54.7067 185.64 52.92 184.146 51.16C182.706 49.4 181.32 47.7467 179.986 46.2C178.653 44.6533 177.506 43.3733 176.546 42.36C176.386 42.1467 176.2 41.96 175.986 41.8C175.773 41.64 175.56 41.56 175.346 41.56C174.813 41.56 174.546 41.88 174.546 42.52V47.32C174.546 49.72 174.573 52.0667 174.626 54.36C174.733 56.6 174.92 58.8667 175.186 61.16C173.96 61.0533 172.76 61 171.586 61C170.413 61 169.213 61.0533 167.986 61.16C168.093 59.9333 168.173 58.3867 168.226 56.52C168.333 54.6533 168.413 52.68 168.466 50.6C168.52 48.52 168.546 46.4133 168.546 44.28C168.6 42.1467 168.626 40.1733 168.626 38.36V23.88ZM211.746 42.28C211.746 44.52 211.933 46.68 212.306 48.76C212.733 50.84 213.426 52.7067 214.386 54.36C215.346 55.96 216.626 57.24 218.226 58.2C219.826 59.16 221.8 59.64 224.146 59.64C226.493 59.64 228.466 59.16 230.066 58.2C231.666 57.24 232.946 55.96 233.906 54.36C234.866 52.7067 235.533 50.84 235.906 48.76C236.333 46.68 236.546 44.52 236.546 42.28C236.546 40.04 236.333 37.88 235.906 35.8C235.533 33.72 234.866 31.88 233.906 30.28C232.946 28.6267 231.666 27.32 230.066 26.36C228.466 25.4 226.493 24.92 224.146 24.92C221.8 24.92 219.826 25.4 218.226 26.36C216.626 27.32 215.346 28.6267 214.386 30.28C213.426 31.88 212.733 33.72 212.306 35.8C211.933 37.88 211.746 40.04 211.746 42.28ZM204.706 42.28C204.706 38.6533 205.266 35.5867 206.386 33.08C207.56 30.52 209.08 28.4667 210.946 26.92C212.813 25.32 214.893 24.1733 217.186 23.48C219.533 22.7333 221.853 22.36 224.146 22.36C226.493 22.36 228.813 22.7333 231.106 23.48C233.4 24.1733 235.48 25.32 237.346 26.92C239.213 28.4667 240.706 30.52 241.826 33.08C243 35.5867 243.586 38.6533 243.586 42.28C243.586 45.9067 243 49 241.826 51.56C240.706 54.0667 239.213 56.12 237.346 57.72C235.48 59.2667 233.4 60.36 231.106 61C228.813 61.64 226.493 61.96 224.146 61.96C221.853 61.96 219.533 61.64 217.186 61C214.893 60.36 212.813 59.2667 210.946 57.72C209.08 56.12 207.56 54.0667 206.386 51.56C205.266 49 204.706 45.9067 204.706 42.28ZM262.622 61.16C260.169 54.8667 257.689 48.5733 255.182 42.28C252.729 35.9867 250.035 29.6133 247.102 23.16C247.795 23.2667 248.462 23.3733 249.102 23.48C249.742 23.5333 250.409 23.56 251.102 23.56C251.689 23.56 252.275 23.5333 252.862 23.48C253.449 23.3733 254.035 23.2667 254.622 23.16C256.275 28.44 258.062 33.64 259.982 38.76C261.955 43.8267 264.142 49.0267 266.542 54.36C267.609 52.1733 268.649 49.8267 269.662 47.32C270.729 44.76 271.769 42.12 272.782 39.4C273.849 36.68 274.862 33.96 275.822 31.24C276.835 28.4667 277.822 25.7733 278.782 23.16C279.742 23.4267 280.569 23.56 281.262 23.56C281.955 23.56 282.782 23.4267 283.742 23.16C280.862 29.6133 278.035 35.9867 275.262 42.28C272.489 48.5733 269.955 54.8667 267.662 61.16C266.862 61.0533 266.035 61 265.182 61C264.329 61 263.475 61.0533 262.622 61.16ZM310.109 41.24C309.202 41.56 308.135 41.8267 306.909 42.04C305.735 42.2533 304.535 42.4933 303.309 42.76C302.082 42.9733 300.855 43.2667 299.629 43.64C298.455 44.0133 297.389 44.52 296.429 45.16C295.522 45.8 294.775 46.6 294.189 47.56C293.655 48.52 293.389 49.7467 293.389 51.24C293.389 53.7467 294.109 55.64 295.549 56.92C296.989 58.2 298.589 58.84 300.349 58.84C302.375 58.84 304.215 58.28 305.869 57.16C307.575 56.04 308.882 54.7333 309.789 53.24L310.109 41.24ZM290.349 27C292.749 25.1867 294.962 23.96 296.989 23.32C299.015 22.68 301.095 22.36 303.229 22.36C305.149 22.36 306.909 22.6533 308.509 23.24C310.109 23.7733 311.469 24.5733 312.589 25.64C313.709 26.6533 314.589 27.9067 315.229 29.4C315.869 30.84 316.189 32.44 316.189 34.2C316.189 37.24 316.135 40.28 316.029 43.32C315.922 46.3067 315.869 49.48 315.869 52.84C315.869 53.48 315.869 54.1733 315.869 54.92C315.922 55.6133 316.055 56.2533 316.269 56.84C316.482 57.3733 316.775 57.8267 317.149 58.2C317.575 58.5733 318.189 58.76 318.989 58.76C319.255 58.76 319.522 58.76 319.789 58.76C320.109 58.7067 320.402 58.6 320.669 58.44V60.2C320.082 60.4667 319.335 60.68 318.429 60.84C317.575 61 316.615 61.08 315.549 61.08C313.842 61.08 312.535 60.6533 311.629 59.8C310.722 58.8933 310.189 57.7467 310.029 56.36C308.109 58.28 306.215 59.6933 304.349 60.6C302.482 61.5067 300.189 61.96 297.469 61.96C296.135 61.96 294.829 61.7733 293.549 61.4C292.269 61.0267 291.122 60.4133 290.109 59.56C289.149 58.7067 288.349 57.6933 287.709 56.52C287.122 55.2933 286.829 53.9067 286.829 52.36C286.829 49.16 287.815 46.68 289.789 44.92C291.815 43.16 294.589 41.9867 298.109 41.4C300.989 40.92 303.229 40.52 304.829 40.2C306.482 39.8267 307.682 39.4533 308.429 39.08C309.229 38.7067 309.709 38.28 309.869 37.8C310.029 37.2667 310.109 36.6 310.109 35.8C310.109 34.4667 309.949 33.1867 309.629 31.96C309.309 30.7333 308.802 29.6667 308.109 28.76C307.415 27.8533 306.509 27.1333 305.389 26.6C304.269 26.0133 302.909 25.72 301.309 25.72C299.175 25.72 297.175 26.2 295.309 27.16C293.495 28.12 292.135 29.4533 291.229 31.16H290.349V27ZM353.574 26.92C353.574 23.4 353.494 19.96 353.334 16.6C353.228 13.1867 353.094 9.72 352.934 6.2C354.961 6.30666 356.961 6.41333 358.934 6.52C360.961 6.57333 362.988 6.6 365.014 6.6C367.041 6.6 369.041 6.54667 371.014 6.44C373.041 6.28 375.068 6.2 377.094 6.2C381.788 6.2 385.788 6.81333 389.094 8.04C392.454 9.26666 395.201 11.0267 397.334 13.32C399.468 15.56 401.014 18.3333 401.974 21.64C402.988 24.8933 403.494 28.5733 403.494 32.68C403.494 38.0133 402.561 42.52 400.694 46.2C398.881 49.8267 396.534 52.76 393.654 55C390.828 57.24 387.681 58.84 384.214 59.8C380.801 60.7067 377.521 61.16 374.374 61.16C372.561 61.16 370.774 61.1333 369.014 61.08C367.254 61.0267 365.468 61 363.654 61C361.841 61 360.054 61 358.294 61C356.534 61 354.748 61.0533 352.934 61.16C353.094 57.8533 353.228 54.4933 353.334 51.08C353.494 47.6667 353.574 44.2 353.574 40.68V26.92ZM360.134 40.68C360.134 46.44 360.294 52.0933 360.614 57.64C361.734 57.9067 363.254 58.12 365.174 58.28C367.094 58.3867 369.068 58.44 371.094 58.44C374.028 58.44 376.961 58.0933 379.894 57.4C382.828 56.7067 385.441 55.4 387.734 53.48C390.081 51.56 391.974 48.9467 393.414 45.64C394.908 42.28 395.654 37.96 395.654 32.68C395.654 28.04 395.068 24.2267 393.894 21.24C392.774 18.2533 391.201 15.9067 389.174 14.2C387.201 12.44 384.828 11.24 382.054 10.6C379.281 9.90666 376.241 9.56 372.934 9.56C370.534 9.56 368.294 9.64 366.214 9.8C364.134 9.96 362.268 10.1467 360.614 10.36C360.454 12.92 360.321 15.6133 360.214 18.44C360.161 21.2133 360.134 24.04 360.134 26.92V40.68ZM429.28 24.92C427.307 24.92 425.627 25.3733 424.24 26.28C422.907 27.1867 421.787 28.3333 420.88 29.72C420.027 31.0533 419.36 32.5467 418.88 34.2C418.453 35.8 418.187 37.32 418.08 38.76C419.733 38.8133 421.44 38.8667 423.2 38.92C425.013 38.9733 426.773 39 428.48 39C430.24 39 432.027 38.9733 433.84 38.92C435.653 38.8667 437.413 38.8133 439.12 38.76C439.12 37.32 438.987 35.8 438.72 34.2C438.507 32.6 438.027 31.1067 437.28 29.72C436.587 28.3333 435.6 27.1867 434.32 26.28C433.04 25.3733 431.36 24.92 429.28 24.92ZM410.8 43.4C410.8 36.84 412.347 31.6933 415.44 27.96C418.587 24.2267 423.147 22.36 429.12 22.36C431.947 22.36 434.373 22.8133 436.4 23.72C438.48 24.5733 440.213 25.7467 441.6 27.24C442.987 28.68 444 30.3867 444.64 32.36C445.333 34.3333 445.68 36.44 445.68 38.68C445.68 39.2133 445.653 39.7467 445.6 40.28C445.6 40.76 445.573 41.2667 445.52 41.8C442.64 41.7467 439.787 41.6933 436.96 41.64C434.133 41.5867 431.28 41.56 428.4 41.56C426.64 41.56 424.88 41.5867 423.12 41.64C421.413 41.6933 419.68 41.7467 417.92 41.8C417.867 42.0667 417.84 42.4667 417.84 43V44.04C417.84 46.12 418.133 48.0667 418.72 49.88C419.36 51.6933 420.267 53.2667 421.44 54.6C422.613 55.88 424.053 56.92 425.76 57.72C427.467 58.4667 429.44 58.84 431.68 58.84C432.747 58.84 433.84 58.7067 434.96 58.44C436.08 58.12 437.173 57.72 438.24 57.24C439.307 56.7067 440.293 56.0933 441.2 55.4C442.16 54.7067 442.987 53.96 443.68 53.16L444.08 53.4L443.6 57.32C442 58.6 440 59.6933 437.6 60.6C435.253 61.5067 432.8 61.96 430.24 61.96C427.36 61.96 424.72 61.5333 422.32 60.68C419.973 59.7733 417.92 58.4933 416.16 56.84C414.453 55.1333 413.12 53.1333 412.16 50.84C411.253 48.5467 410.8 46.0667 410.8 43.4ZM453.68 53.72C453.947 54.2533 454.347 54.84 454.88 55.48C455.467 56.12 456.133 56.7333 456.88 57.32C457.68 57.8533 458.56 58.3067 459.52 58.68C460.533 59.0533 461.6 59.24 462.72 59.24C463.733 59.24 464.693 59.08 465.6 58.76C466.56 58.44 467.387 57.9867 468.08 57.4C468.827 56.8133 469.413 56.0667 469.84 55.16C470.267 54.2533 470.48 53.2133 470.48 52.04C470.48 50.3867 470 49.1333 469.04 48.28C468.133 47.3733 466.987 46.6533 465.6 46.12C464.213 45.5333 462.693 45.0267 461.04 44.6C459.387 44.1733 457.867 43.5867 456.48 42.84C455.093 42.04 453.92 41 452.96 39.72C452.053 38.44 451.6 36.68 451.6 34.44C451.6 32.68 451.893 31.08 452.48 29.64C453.067 28.1467 453.92 26.8667 455.04 25.8C456.16 24.7333 457.547 23.9067 459.2 23.32C460.853 22.68 462.747 22.36 464.88 22.36C466.853 22.36 468.507 22.6267 469.84 23.16C471.227 23.6933 472.533 24.1733 473.76 24.6C473.333 25.4 472.933 26.3867 472.56 27.56C472.187 28.7333 471.947 29.64 471.84 30.28H470.88C470.453 29 469.627 27.8533 468.4 26.84C467.173 25.8267 465.653 25.32 463.84 25.32C463.04 25.32 462.24 25.4533 461.44 25.72C460.64 25.9867 459.92 26.3867 459.28 26.92C458.64 27.4533 458.107 28.1467 457.68 29C457.253 29.8533 457.04 30.8667 457.04 32.04C457.04 33.7467 457.493 35.08 458.4 36.04C459.36 36.9467 460.533 37.6667 461.92 38.2C463.307 38.7333 464.827 39.2133 466.48 39.64C468.133 40.0133 469.653 40.5733 471.04 41.32C472.427 42.0133 473.573 43 474.48 44.28C475.44 45.56 475.92 47.32 475.92 49.56C475.92 51.1067 475.573 52.6267 474.88 54.12C474.24 55.6133 473.28 56.9733 472 58.2C470.773 59.3733 469.28 60.3067 467.52 61C465.76 61.64 463.76 61.96 461.52 61.96C459.067 61.96 457.013 61.72 455.36 61.24C453.707 60.76 452.32 60.2 451.2 59.56C451.52 58.8667 451.84 57.9333 452.16 56.76C452.533 55.5333 452.72 54.52 452.72 53.72H453.68ZM486.134 9.24C486.134 8.12 486.534 7.16 487.334 6.36C488.134 5.56 489.094 5.16 490.214 5.16C491.334 5.16 492.294 5.56 493.094 6.36C493.894 7.16 494.294 8.12 494.294 9.24C494.294 10.36 493.894 11.32 493.094 12.12C492.294 12.92 491.334 13.32 490.214 13.32C489.094 13.32 488.134 12.92 487.334 12.12C486.534 11.32 486.134 10.36 486.134 9.24ZM487.254 38.12C487.254 35.72 487.2 33.2133 487.094 30.6C487.04 27.9333 486.88 25.4533 486.614 23.16C488.107 23.4267 489.307 23.56 490.214 23.56C491.12 23.56 492.32 23.4267 493.814 23.16C493.547 25.4533 493.36 27.9333 493.254 30.6C493.2 33.2133 493.174 35.72 493.174 38.12V46.44C493.174 48.84 493.2 51.3733 493.254 54.04C493.36 56.6533 493.547 59.0267 493.814 61.16C492.587 61.0533 491.387 61 490.214 61C489.04 61 487.84 61.0533 486.614 61.16C486.88 59.0267 487.04 56.6533 487.094 54.04C487.2 51.3733 487.254 48.84 487.254 46.44V38.12ZM533.759 69.64C533.759 66.44 532.826 64.2 530.959 62.92C529.093 61.64 525.999 61 521.679 61C517.679 61 514.586 61.64 512.399 62.92C510.213 64.2533 509.119 66.6267 509.119 70.04C509.119 71.8533 509.413 73.4 509.999 74.68C510.639 75.96 511.466 77 512.479 77.8C513.546 78.6 514.799 79.1867 516.239 79.56C517.679 79.9333 519.226 80.12 520.879 80.12C522.479 80.12 524.053 79.9067 525.599 79.48C527.146 79.0533 528.506 78.4133 529.679 77.56C530.906 76.7067 531.893 75.6133 532.639 74.28C533.386 73 533.759 71.4533 533.759 69.64ZM529.439 35C529.439 31.64 528.639 29.08 527.039 27.32C525.439 25.56 523.333 24.68 520.719 24.68C517.839 24.68 515.599 25.6667 513.999 27.64C512.399 29.56 511.599 32.1467 511.599 35.4C511.599 38.76 512.319 41.4267 513.759 43.4C515.253 45.32 517.546 46.28 520.639 46.28C522.186 46.28 523.493 45.9867 524.559 45.4C525.679 44.76 526.586 43.9333 527.279 42.92C528.026 41.8533 528.559 40.6533 528.879 39.32C529.253 37.9333 529.439 36.4933 529.439 35ZM505.359 35.4C505.359 33.16 505.759 31.24 506.559 29.64C507.359 27.9867 508.453 26.6267 509.839 25.56C511.279 24.4933 512.906 23.6933 514.719 23.16C516.586 22.6267 518.559 22.36 520.639 22.36C521.653 22.36 522.613 22.3867 523.519 22.44C524.479 22.4933 525.679 22.5733 527.119 22.68C528.346 22.7867 529.439 22.8667 530.399 22.92C531.359 22.9733 532.133 23 532.719 23C535.706 23 537.866 22.8667 539.199 22.6C539.146 22.8667 539.093 23.16 539.039 23.48C539.039 23.7467 539.039 24.0133 539.039 24.28C539.039 24.5467 539.039 24.84 539.039 25.16C539.093 25.4267 539.146 25.6933 539.199 25.96C537.653 25.8533 536.133 25.7467 534.639 25.64C533.199 25.48 531.759 25.3733 530.319 25.32L530.159 25.48C531.813 26.3867 533.146 27.8 534.159 29.72C535.173 31.5867 535.679 33.5333 535.679 35.56C535.679 39.56 534.319 42.7067 531.599 45C528.933 47.24 525.333 48.36 520.799 48.36C520.053 48.36 519.306 48.3333 518.559 48.28C517.866 48.2267 517.146 48.2 516.399 48.2C515.439 48.2 514.533 48.5467 513.679 49.24C512.879 49.9333 512.479 50.8133 512.479 51.88C512.479 53.2667 512.799 54.28 513.439 54.92C514.133 55.56 515.386 55.9067 517.199 55.96C518.693 56.0133 520.159 56.0667 521.599 56.12C523.039 56.12 524.506 56.1467 525.999 56.2C528.453 56.2533 530.533 56.5467 532.239 57.08C533.999 57.6133 535.413 58.3333 536.479 59.24C537.599 60.1467 538.399 61.1867 538.879 62.36C539.413 63.5333 539.679 64.8133 539.679 66.2C539.679 68.0667 539.306 69.96 538.559 71.88C537.866 73.8 536.746 75.5333 535.199 77.08C533.706 78.6267 531.759 79.9067 529.359 80.92C526.959 81.9333 524.079 82.44 520.719 82.44C515.546 82.44 511.466 81.4 508.479 79.32C505.493 77.2933 503.999 74.4933 503.999 70.92C503.999 69.5333 504.239 68.2533 504.719 67.08C505.253 65.9067 505.919 64.8667 506.719 63.96C507.519 63.0533 508.426 62.3333 509.439 61.8C510.453 61.2667 511.493 60.8667 512.559 60.6V60.44C510.906 59.96 509.653 59.16 508.799 58.04C507.946 56.92 507.519 55.5867 507.519 54.04C507.519 53.1333 507.679 52.3067 507.999 51.56C508.373 50.8133 508.826 50.1467 509.359 49.56C509.893 48.9733 510.506 48.4933 511.199 48.12C511.893 47.7467 512.559 47.5067 513.199 47.4V47.24C510.746 46.1733 508.826 44.68 507.439 42.76C506.053 40.7867 505.359 38.3333 505.359 35.4ZM573.519 38.68C573.519 34.68 572.746 31.6667 571.199 29.64C569.653 27.56 567.519 26.52 564.799 26.52C561.066 26.52 558.319 27.6667 556.559 29.96C554.853 32.2533 553.999 35.48 553.999 39.64V46.44C553.999 48.84 554.026 51.3733 554.079 54.04C554.186 56.6533 554.373 59.0267 554.639 61.16C553.413 61.0533 552.213 61 551.039 61C549.866 61 548.666 61.0533 547.439 61.16C547.706 59.0267 547.866 56.6533 547.919 54.04C548.026 51.3733 548.079 48.84 548.079 46.44V38.12C548.079 35.72 548.026 33.2133 547.919 30.6C547.866 27.9333 547.706 25.4533 547.439 23.16C548.933 23.4267 550.133 23.56 551.039 23.56C551.466 23.56 551.919 23.5333 552.399 23.48C552.933 23.3733 553.546 23.2667 554.239 23.16C554.079 25.2933 553.999 27.4267 553.999 29.56H554.159C555.653 27.2667 557.439 25.5067 559.519 24.28C561.599 23 564.079 22.36 566.959 22.36C568.453 22.36 569.946 22.5733 571.439 23C572.986 23.4267 574.373 24.1733 575.599 25.24C576.826 26.2533 577.813 27.6667 578.559 29.48C579.359 31.24 579.759 33.5067 579.759 36.28C579.759 38.5733 579.706 40.9467 579.599 43.4C579.493 45.8 579.439 48.36 579.439 51.08V56.28C579.439 57.1333 579.439 57.9867 579.439 58.84C579.493 59.64 579.546 60.4133 579.599 61.16C578.533 61.0533 577.413 61 576.239 61C575.119 61 574.026 61.0533 572.959 61.16C573.066 58.3867 573.173 55.5333 573.279 52.6C573.439 49.6667 573.519 46.6533 573.519 43.56V38.68Z" fill="white"/>
</svg>
